<svg width="40" height="40" viewBox="0 0 40 40" fill="none" xmlns="http://www.w3.org/2000/svg">
<g filter="url(#filter0_d_1_168)">
<path fill-rule="evenodd" clip-rule="evenodd" d="M6.46137 0C5.80857 0 5.18251 0.25934 4.72092 0.720968C4.25932 1.1826 4 1.8087 4 2.46154V29.5385C4 30.1913 4.25932 30.8174 4.72092 31.279C5.18251 31.7407 5.80857 32 6.46137 32H24.9216C25.248 32 25.5611 31.8703 25.7919 31.6395C26.0227 31.4087 26.1523 31.0957 26.1523 30.7692C26.1523 30.4428 26.0227 30.1298 25.7919 29.8989C25.5611 29.6681 25.248 29.5385 24.9216 29.5385H6.46137V2.46154H24.9216C25.248 2.46154 25.5611 2.33187 25.7919 2.10105C26.0227 1.87024 26.1523 1.55719 26.1523 1.23077C26.1523 0.904349 26.0227 0.591298 25.7919 0.360484C25.5611 0.12967 25.248 0 24.9216 0H6.46137ZM30.1004 9.59015C29.8693 9.35905 29.5558 9.22921 29.229 9.22921C28.9022 9.22921 28.5888 9.35905 28.3577 9.59015C28.1266 9.82126 27.9968 10.1347 27.9968 10.4615C27.9968 10.7884 28.1266 11.1018 28.3577 11.3329L31.7962 14.7692H15.0762C14.7498 14.7692 14.4367 14.8989 14.2059 15.1297C13.9751 15.3605 13.8455 15.6736 13.8455 16C13.8455 16.3264 13.9751 16.6395 14.2059 16.8703C14.4367 17.1011 14.7498 17.2308 15.0762 17.2308H31.7962L28.3577 20.6671C28.1266 20.8982 27.9968 21.2116 27.9968 21.5385C27.9968 21.8653 28.1266 22.1787 28.3577 22.4098C28.5888 22.641 28.9022 22.7708 29.229 22.7708C29.5558 22.7708 29.8693 22.641 30.1004 22.4098L35.6384 16.8714C35.7531 16.7571 35.844 16.6212 35.906 16.4717C35.9681 16.3222 36 16.1619 36 16C36 15.8381 35.9681 15.6778 35.906 15.5283C35.844 15.3788 35.7531 15.2429 35.6384 15.1286L30.1004 9.59015Z" fill="black"/>
</g>
<defs>
<filter id="filter0_d_1_168" x="0" y="0" width="40" height="40" filterUnits="userSpaceOnUse" color-interpolation-filters="sRGB">
<feFlood flood-opacity="0" result="BackgroundImageFix"/>
<feColorMatrix in="SourceAlpha" type="matrix" values="0 0 0 0 0 0 0 0 0 0 0 0 0 0 0 0 0 0 127 0" result="hardAlpha"/>
<feOffset dy="4"/>
<feGaussianBlur stdDeviation="2"/>
<feComposite in2="hardAlpha" operator="out"/>
<feColorMatrix type="matrix" values="0 0 0 0 0 0 0 0 0 0 0 0 0 0 0 0 0 0 0.25 0"/>
<feBlend mode="normal" in2="BackgroundImageFix" result="effect1_dropShadow_1_168"/>
<feBlend mode="normal" in="SourceGraphic" in2="effect1_dropShadow_1_168" result="shape"/>
</filter>
</defs>
</svg>
